<svg width="24" height="15" viewBox="0 0 24 15" fill="none" xmlns="http://www.w3.org/2000/svg">
<path fill-rule="evenodd" clip-rule="evenodd" d="M24 14.0536V7.47137C24 7.22219 23.895 6.98241 23.707 6.80657C23.52 6.62979 23.265 6.53106 23 6.53106H1C0.735 6.53106 0.48 6.62979 0.293 6.80657C0.105 6.98241 0 7.22219 0 7.47137V14.0536H1V12.173H23V14.0536H24ZM5 5.59074V4.65043C5 4.13137 5.448 3.71011 6 3.71011H10C10.552 3.71011 11 4.13137 11 4.65043V5.59074H13V4.65043C13 4.13137 13.448 3.71011 14 3.71011H18C18.552 3.71011 19 4.13137 19 4.65043V5.59074H22V1.82948C22 1.58029 21.895 1.34051 21.707 1.16467C21.52 0.987894 21.265 0.88916 21 0.88916H3C2.735 0.88916 2.48 0.987894 2.293 1.16467C2.105 1.34051 2 1.58029 2 1.82948V5.59074H5Z" fill="#FF9E00"/>
</svg>
